{
  "accessors": [
    {
      "bufferView": 2,
      "componentType": 5126,
      "count": 332,
      "max": [
        1.0,
        1.0,
        1.0
      ],
      "min": [
        -2.494009256362915,
        -1.0,
        -1.0
      ],
      "type": "VEC3"
    },
    {
      "bufferView": 2,
      "byteOffset": 3984,
      "componentType": 5126,
      "count": 332,
      "max": [
        1.0,
        1.0,
        1.0
      ],
      "min": [
        -1.0,
        -1.0,
        -1.0
      ],
      "type": "VEC3"
    },
    {
      "bufferView": 1,
      "componentType": 5126,
      "count": 332,
      "max": [
        0.7092592120170593,
        0.9222222566604614
      ],
      "min": [
        0.125,
        0.07407408952713013
      ],
      "type": "VEC2"
    },
    {
      "bufferView": 0,
      "componentType": 5125,
      "count": 924,
      "type": "SCALAR"
    },
    {
      "bufferView": 2,
      "byteOffset": 7968,
      "componentType": 5126,
      "count": 65532,
      "max": [
        0.3607795238494873,
        0.8522777557373047,
        0.8872745633125305
      ],
      "min": [
        -2.3092966079711914,
        -0.9410685300827026,
        -0.8443828821182251
      ],
      "type": "VEC3"
    },
    {
      "bufferView": 2,
      "byteOffset": 794352,
      "componentType": 5126,
      "count": 65532,
      "max": [
        1.0,
        1.0,
        1.0
      ],
      "min": [
        -1.0,
        -1.0,
        -1.0
      ],
      "type": "VEC3"
    },
    {
      "bufferView": 1,
      "byteOffset": 2656,
      "componentType": 5126,
      "count": 65532,
      "max": [
        1.2570672035217285,
        0.9793205857276917
      ],
      "min": [
        0.05372259020805359,
        0.03844267129898071
      ],
      "type": "VEC2"
    },
    {
      "bufferView": 0,
      "byteOffset": 3696,
      "componentType": 5125,
      "count": 392259,
      "type": "SCALAR"
    },
    {
      "bufferView": 2,
      "byteOffset": 1580736,
      "componentType": 5126,
      "count": 6892,
      "max": [
        0.3330106735229492,
        0.5093468427658081,
        0.202386274933815
      ],
      "min": [
        -2.281527519226074,
        0.23051616549491882,
        -0.6305640339851379
      ],
      "type": "VEC3"
    },
    {
      "bufferView": 2,
      "byteOffset": 1663440,
      "componentType": 5126,
      "count": 6892,
      "max": [
        1.0,
        1.0,
        1.0
      ],
      "min": [
        -1.0,
        -1.0,
        -1.0
      ],
      "type": "VEC3"
    },
    {
      "bufferView": 1,
      "byteOffset": 526912,
      "componentType": 5126,
      "count": 6892,
      "max": [
        0.9387671947479248,
        0.9730210304260254
      ],
      "min": [
        0.18125081062316895,
        0.07124048471450806
      ],
      "type": "VEC2"
    },
    {
      "bufferView": 0,
      "byteOffset": 1572732,
      "componentType": 5125,
      "count": 41085,
      "type": "SCALAR"
    }
  ],
  "asset": {
    "extras": {
      "author": "Crew Froebel (https://sketchfab.com/crufro)",
      "license": "CC-BY-4.0 (http://creativecommons.org/licenses/by/4.0/)",
      "source": "https://sketchfab.com/3d-models/bookshelf-cc0-71af93b1d15f4f48ad836d36110626f7",
      "title": "Bookshelf [CC0]"
    },
    "generator": "Sketchfab-13.68.0",
    "version": "2.0"
  },
  "bufferViews": [
    {
      "buffer": 0,
      "byteLength": 1737072,
      "name": "floatBufferViews",
      "target": 34963
    },
    {
      "buffer": 0,
      "byteLength": 582048,
      "byteOffset": 1737072,
      "byteStride": 8,
      "name": "floatBufferViews",
      "target": 34962
    },
    {
      "buffer": 0,
      "byteLength": 1746144,
      "byteOffset": 2319120,
      "byteStride": 12,
      "name": "floatBufferViews",
      "target": 34962
    }
  ],
  "buffers": [
    {
      "byteLength": 4065264,
      "uri": "scene.bin"
    }
  ],
  "images": [
    {
      "uri": "textures/Bookshelf_baseColor.jpeg"
    },
    {
      "uri": "textures/Book_baseColor.jpeg"
    }
  ],
  "materials": [
    {
      "doubleSided": true,
      "name": "Bookshelf",
      "pbrMetallicRoughness": {
        "baseColorTexture": {
          "index": 0
        },
        "metallicFactor": 0.0,
        "roughnessFactor": 0.821839
      }
    },
    {
      "doubleSided": true,
      "name": "Book",
      "pbrMetallicRoughness": {
        "baseColorTexture": {
          "index": 1
        },
        "metallicFactor": 0.0,
        "roughnessFactor": 0.729885
      }
    }
  ],
  "meshes": [
    {
      "name": "Object_0",
      "primitives": [
        {
          "attributes": {
            "NORMAL": 1,
            "POSITION": 0,
            "TEXCOORD_0": 2
          },
          "indices": 3,
          "material": 0,
          "mode": 4
        }
      ]
    },
    {
      "name": "Object_1",
      "primitives": [
        {
          "attributes": {
            "NORMAL": 5,
            "POSITION": 4,
            "TEXCOORD_0": 6
          },
          "indices": 7,
          "material": 1,
          "mode": 4
        }
      ]
    },
    {
      "name": "Object_2",
      "primitives": [
        {
          "attributes": {
            "NORMAL": 9,
            "POSITION": 8,
            "TEXCOORD_0": 10
          },
          "indices": 11,
          "material": 1,
          "mode": 4
        }
      ]
    }
  ],
  "nodes": [
    {
      "children": [
        1
      ],
      "matrix": [
        1.0,
        0.0,
        0.0,
        0.0,
        0.0,
        2.220446049250313e-16,
        -1.0,
        0.0,
        0.0,
        1.0,
        2.220446049250313e-16,
        0.0,
        0.0,
        0.0,
        0.0,
        1.0
      ],
      "name": "Sketchfab_model"
    },
    {
      "children": [
        2
      ],
      "name": "root"
    },
    {
      "children": [
        3
      ],
      "matrix": [
        1.0,
        0.0,
        0.0,
        0.0,
        0.0,
        2.220446049250313e-16,
        1.0,
        0.0,
        0.0,
        -1.0,
        2.220446049250313e-16,
        0.0,
        0.0,
        0.0,
        0.0,
        1.0
      ],
      "name": "GLTF_SceneRootNode"
    },
    {
      "children": [
        4,
        5,
        6
      ],
      "matrix": [
        0.06035153940320015,
        0.0,
        0.0,
        0.0,
        0.0,
        0.5750921368598938,
        0.0,
        0.0,
        0.0,
        0.0,
        0.3084784746170044,
        0.0,
        8.970623970031738,
        0.5768030881881714,
        0.18347328901290894,
        1.0
      ],
      "name": "Bookshelf_0"
    },
    {
      "mesh": 0,
      "name": "Object_4"
    },
    {
      "mesh": 1,
      "name": "Object_5"
    },
    {
      "mesh": 2,
      "name": "Object_6"
    }
  ],
  "samplers": [
    {
      "magFilter": 9729,
      "minFilter": 9987,
      "wrapS": 10497,
      "wrapT": 10497
    }
  ],
  "scene": 0,
  "scenes": [
    {
      "name": "Sketchfab_Scene",
      "nodes": [
        0
      ]
    }
  ],
  "textures": [
    {
      "sampler": 0,
      "source": 0
    },
    {
      "sampler": 0,
      "source": 1
    }
  ]
}
